<svg xmlns="http://www.w3.org/2000/svg" viewBox="0 0 128 128" role="img" aria-label="iAcceptDonations favicon">
  <defs>
    <linearGradient id="bg" x1="12" y1="8" x2="116" y2="120" gradientUnits="userSpaceOnUse">
      <stop stop-color="#00a7e8"/>
      <stop offset="0.55" stop-color="#6d5dfc"/>
      <stop offset="1" stop-color="#f53d8e"/>
    </linearGradient>
    <linearGradient id="coin" x1="70" y1="5" x2="104" y2="42" gradientUnits="userSpaceOnUse">
      <stop stop-color="#ffe172"/>
      <stop offset="1" stop-color="#ffb020"/>
    </linearGradient>
  </defs>
  <rect width="128" height="128" rx="30" fill="url(#bg)"/>
  <circle cx="87" cy="25" r="17" fill="url(#coin)" stroke="#fff7c8" stroke-width="4"/>
  <path d="M87 15v20M80 23c2.6-4.6 12.2-4 13.7.5 1.5 5.1-10.9 4.2-9.4 9.2 1.3 4.3 9.8 3.8 12.3.2" fill="none" stroke="#172033" stroke-width="4.5" stroke-linecap="round"/>
  <path d="M34 55c0-8.3 6.7-15 15-15h31c8.3 0 15 6.7 15 15v37c0 8.3-6.7 15-15 15H49c-8.3 0-15-6.7-15-15V55Z" fill="#fff"/>
  <path d="M42 57h45M49 71c5.2 6.2 25.4 6.2 31 0" fill="none" stroke="#172033" stroke-width="7" stroke-linecap="round"/>
  <path d="M54 90c5.9 6.1 15.3 6.1 21.2 0" fill="none" stroke="#f53d8e" stroke-width="7" stroke-linecap="round"/>
</svg>
